<svg width="155" height="236" viewBox="0 0 155 236" fill="none" xmlns="http://www.w3.org/2000/svg">
<g filter="url(#filter0_d_53_3246)">
<path d="M77.5 101L10.383 63.5H144.617L77.5 101Z" fill="url(#paint0_radial_53_3246)"/>
</g>
<g filter="url(#filter1_d_53_3246)">
<path d="M10 4H145V62.5C145 63.3284 144.328 64 143.5 64H11.5C10.6716 64 10 63.3284 10 62.5V4Z" fill="url(#paint1_radial_53_3246)"/>
</g>
<g clip-path="url(#clip0_53_3246)">
<g filter="url(#filter2_d_53_3246)">
<path d="M72.5 101.887C75.594 100.1 79.406 100.1 82.5 101.887L130.957 129.863C134.051 131.65 135.957 134.951 135.957 138.524V194.476C135.957 198.049 134.051 201.35 130.957 203.137L82.5 231.113C79.406 232.9 75.594 232.9 72.5 231.113L24.0433 203.137C20.9493 201.35 19.0433 198.049 19.0433 194.477V138.524C19.0433 134.951 20.9493 131.65 24.0433 129.863L72.5 101.887Z" fill="url(#paint2_radial_53_3246)"/>
<path d="M72.5 101.887C75.594 100.1 79.406 100.1 82.5 101.887L130.957 129.863C134.051 131.65 135.957 134.951 135.957 138.524V194.476C135.957 198.049 134.051 201.35 130.957 203.137L82.5 231.113C79.406 232.9 75.594 232.9 72.5 231.113L24.0433 203.137C20.9493 201.35 19.0433 198.049 19.0433 194.477V138.524C19.0433 134.951 20.9493 131.65 24.0433 129.863L72.5 101.887Z" fill="url(#paint3_radial_53_3246)" fill-opacity="0.2"/>
<path d="M73.75 104.052C76.0705 102.712 78.9295 102.712 81.25 104.052L129.707 132.028C132.027 133.368 133.457 135.844 133.457 138.524V194.476C133.457 197.156 132.027 199.632 129.707 200.972L81.25 228.948C78.9295 230.288 76.0705 230.288 73.75 228.948L25.2933 200.972C22.9728 199.632 21.5433 197.156 21.5433 194.477V138.524C21.5433 135.844 22.9728 133.368 25.2933 132.028L73.75 104.052Z" stroke="#4D4B49" stroke-width="5"/>
<path d="M73.75 104.052C76.0705 102.712 78.9295 102.712 81.25 104.052L129.707 132.028C132.027 133.368 133.457 135.844 133.457 138.524V194.476C133.457 197.156 132.027 199.632 129.707 200.972L81.25 228.948C78.9295 230.288 76.0705 230.288 73.75 228.948L25.2933 200.972C22.9728 199.632 21.5433 197.156 21.5433 194.477V138.524C21.5433 135.844 22.9728 133.368 25.2933 132.028L73.75 104.052Z" stroke="#F9DBD8" stroke-opacity="0.5" stroke-width="5"/>
</g>
</g>
<g filter="url(#filter3_d_53_3246)">
<rect x="8.5" y="16" width="137" height="36" rx="2" fill="url(#paint4_radial_53_3246)"/>
</g>
<defs>
<filter id="filter0_d_53_3246" x="6.38306" y="59.5" width="142.234" height="45.5" filterUnits="userSpaceOnUse" color-interpolation-filters="sRGB">
<feFlood flood-opacity="0" result="BackgroundImageFix"/>
<feColorMatrix in="SourceAlpha" type="matrix" values="0 0 0 0 0 0 0 0 0 0 0 0 0 0 0 0 0 0 127 0" result="hardAlpha"/>
<feOffset/>
<feGaussianBlur stdDeviation="2"/>
<feComposite in2="hardAlpha" operator="out"/>
<feColorMatrix type="matrix" values="0 0 0 0 0 0 0 0 0 0 0 0 0 0 0 0 0 0 0.25 0"/>
<feBlend mode="normal" in2="BackgroundImageFix" result="effect1_dropShadow_53_3246"/>
<feBlend mode="normal" in="SourceGraphic" in2="effect1_dropShadow_53_3246" result="shape"/>
</filter>
<filter id="filter1_d_53_3246" x="6" y="0" width="143" height="68" filterUnits="userSpaceOnUse" color-interpolation-filters="sRGB">
<feFlood flood-opacity="0" result="BackgroundImageFix"/>
<feColorMatrix in="SourceAlpha" type="matrix" values="0 0 0 0 0 0 0 0 0 0 0 0 0 0 0 0 0 0 127 0" result="hardAlpha"/>
<feOffset/>
<feGaussianBlur stdDeviation="2"/>
<feComposite in2="hardAlpha" operator="out"/>
<feColorMatrix type="matrix" values="0 0 0 0 0 0 0 0 0 0 0 0 0 0 0 0 0 0 0.25 0"/>
<feBlend mode="normal" in2="BackgroundImageFix" result="effect1_dropShadow_53_3246"/>
<feBlend mode="normal" in="SourceGraphic" in2="effect1_dropShadow_53_3246" result="shape"/>
</filter>
<filter id="filter2_d_53_3246" x="15.0432" y="96.547" width="124.913" height="139.906" filterUnits="userSpaceOnUse" color-interpolation-filters="sRGB">
<feFlood flood-opacity="0" result="BackgroundImageFix"/>
<feColorMatrix in="SourceAlpha" type="matrix" values="0 0 0 0 0 0 0 0 0 0 0 0 0 0 0 0 0 0 127 0" result="hardAlpha"/>
<feOffset/>
<feGaussianBlur stdDeviation="2"/>
<feComposite in2="hardAlpha" operator="out"/>
<feColorMatrix type="matrix" values="0 0 0 0 0 0 0 0 0 0 0 0 0 0 0 0 0 0 0.25 0"/>
<feBlend mode="normal" in2="BackgroundImageFix" result="effect1_dropShadow_53_3246"/>
<feBlend mode="normal" in="SourceGraphic" in2="effect1_dropShadow_53_3246" result="shape"/>
</filter>
<filter id="filter3_d_53_3246" x="6.5" y="14" width="141" height="40" filterUnits="userSpaceOnUse" color-interpolation-filters="sRGB">
<feFlood flood-opacity="0" result="BackgroundImageFix"/>
<feColorMatrix in="SourceAlpha" type="matrix" values="0 0 0 0 0 0 0 0 0 0 0 0 0 0 0 0 0 0 127 0" result="hardAlpha"/>
<feMorphology radius="1" operator="dilate" in="SourceAlpha" result="effect1_dropShadow_53_3246"/>
<feOffset/>
<feGaussianBlur stdDeviation="0.5"/>
<feComposite in2="hardAlpha" operator="out"/>
<feColorMatrix type="matrix" values="0 0 0 0 0 0 0 0 0 0 0 0 0 0 0 0 0 0 0.25 0"/>
<feBlend mode="normal" in2="BackgroundImageFix" result="effect1_dropShadow_53_3246"/>
<feBlend mode="normal" in="SourceGraphic" in2="effect1_dropShadow_53_3246" result="shape"/>
</filter>
<radialGradient id="paint0_radial_53_3246" cx="0" cy="0" r="1" gradientUnits="userSpaceOnUse" gradientTransform="translate(77.5 76) scale(77.5 240.25)">
<stop stop-color="#080764"/>
<stop offset="1" stop-color="#040331"/>
</radialGradient>
<radialGradient id="paint1_radial_53_3246" cx="0" cy="0" r="1" gradientUnits="userSpaceOnUse" gradientTransform="translate(77.5 34) scale(67.5 151.875)">
<stop stop-color="#090765"/>
<stop offset="1" stop-color="#040430"/>
</radialGradient>
<radialGradient id="paint2_radial_53_3246" cx="0" cy="0" r="1" gradientUnits="userSpaceOnUse" gradientTransform="translate(77.5 166.5) rotate(90) scale(67.5)">
<stop stop-color="#6D6A66"/>
<stop offset="1" stop-color="#D3CEC6"/>
</radialGradient>
<radialGradient id="paint3_radial_53_3246" cx="0" cy="0" r="1" gradientUnits="userSpaceOnUse" gradientTransform="translate(77.5 166.5) rotate(90) scale(67.5)">
<stop stop-color="#F9DBD8"/>
<stop offset="1" stop-color="#F9DBD8" stop-opacity="0.5"/>
</radialGradient>
<radialGradient id="paint4_radial_53_3246" cx="0" cy="0" r="1" gradientUnits="userSpaceOnUse" gradientTransform="translate(77 34) scale(68.5 18)">
<stop stop-color="#33A000"/>
<stop offset="1" stop-color="#1D5B00"/>
</radialGradient>
<clipPath id="clip0_53_3246">
<rect width="135" height="135" fill="white" transform="translate(10 99)"/>
</clipPath>
</defs>
</svg>
