<svg width="155" height="236" viewBox="0 0 155 236" fill="none" xmlns="http://www.w3.org/2000/svg">
<g filter="url(#filter0_d_53_3301)">
<path d="M77.5 101L10.383 63.5H144.617L77.5 101Z" fill="url(#paint0_radial_53_3301)"/>
</g>
<g filter="url(#filter1_d_53_3301)">
<path d="M10 4H145V62.5C145 63.3284 144.328 64 143.5 64H11.5C10.6716 64 10 63.3284 10 62.5V4Z" fill="url(#paint1_radial_53_3301)"/>
</g>
<g clip-path="url(#clip0_53_3301)">
<g filter="url(#filter2_d_53_3301)">
<path d="M76.0051 100.682C76.8007 99.7868 78.1993 99.7868 78.9949 100.682L100.684 125.084C100.97 125.406 101.353 125.627 101.775 125.714L133.753 132.296C134.926 132.538 135.625 133.749 135.248 134.886L124.959 165.87C124.823 166.279 124.823 166.721 124.959 167.13L135.248 198.114C135.625 199.251 134.926 200.462 133.753 200.704L101.775 207.286C101.353 207.373 100.97 207.594 100.684 207.916L78.9949 232.318C78.1993 233.213 76.8007 233.213 76.0051 232.318L54.3162 207.916C54.0298 207.594 53.6468 207.373 53.2245 207.286L21.2473 200.704C20.0743 200.462 19.375 199.251 19.7524 198.114L30.0407 167.13C30.1766 166.721 30.1766 166.279 30.0407 165.87L19.7524 134.886C19.375 133.749 20.0743 132.538 21.2473 132.296L53.2245 125.714C53.6468 125.627 54.0298 125.406 54.3162 125.084L76.0051 100.682Z" fill="url(#paint2_radial_53_3301)"/>
<path d="M76.0051 100.682C76.8007 99.7868 78.1993 99.7868 78.9949 100.682L100.684 125.084C100.97 125.406 101.353 125.627 101.775 125.714L133.753 132.296C134.926 132.538 135.625 133.749 135.248 134.886L124.959 165.87C124.823 166.279 124.823 166.721 124.959 167.13L135.248 198.114C135.625 199.251 134.926 200.462 133.753 200.704L101.775 207.286C101.353 207.373 100.97 207.594 100.684 207.916L78.9949 232.318C78.1993 233.213 76.8007 233.213 76.0051 232.318L54.3162 207.916C54.0298 207.594 53.6468 207.373 53.2245 207.286L21.2473 200.704C20.0743 200.462 19.375 199.251 19.7524 198.114L30.0407 167.13C30.1766 166.721 30.1766 166.279 30.0407 165.87L19.7524 134.886C19.375 133.749 20.0743 132.538 21.2473 132.296L53.2245 125.714C53.6468 125.627 54.0298 125.406 54.3162 125.084L76.0051 100.682Z" fill="url(#paint3_radial_53_3301)" fill-opacity="0.2"/>
<path d="M56.1848 126.745L77.5 102.763L98.8152 126.745C99.4597 127.47 100.321 127.967 101.271 128.163L132.698 134.632L122.587 165.082C122.281 166.003 122.281 166.997 122.587 167.918L132.698 198.368L101.271 204.837C100.321 205.033 99.4597 205.53 98.8152 206.255L77.5 230.237L56.1848 206.255L54.3162 207.916L56.1848 206.255C55.5403 205.53 54.6788 205.033 53.7285 204.837L22.3023 198.368L32.4133 167.918C32.7191 166.997 32.719 166.003 32.4133 165.082L22.3023 134.632L53.7286 128.163C54.6788 127.967 55.5403 127.47 56.1848 126.745ZM132.875 134.098L132.875 134.099L132.875 134.098ZM132.875 198.902C132.875 198.902 132.875 198.901 132.874 198.901L132.875 198.902ZM21.7513 198.255C21.752 198.255 21.7528 198.255 21.7536 198.255L21.7513 198.255L21.6505 198.745L21.7513 198.255ZM22.1254 198.901C22.1253 198.902 22.1251 198.902 22.125 198.902L22.1254 198.901Z" stroke="#4D4B49" stroke-width="5"/>
<path d="M56.1848 126.745L77.5 102.763L98.8152 126.745C99.4597 127.47 100.321 127.967 101.271 128.163L132.698 134.632L122.587 165.082C122.281 166.003 122.281 166.997 122.587 167.918L132.698 198.368L101.271 204.837C100.321 205.033 99.4597 205.53 98.8152 206.255L77.5 230.237L56.1848 206.255L54.3162 207.916L56.1848 206.255C55.5403 205.53 54.6788 205.033 53.7285 204.837L22.3023 198.368L32.4133 167.918C32.7191 166.997 32.719 166.003 32.4133 165.082L22.3023 134.632L53.7286 128.163C54.6788 127.967 55.5403 127.47 56.1848 126.745ZM132.875 134.098L132.875 134.099L132.875 134.098ZM132.875 198.902C132.875 198.902 132.875 198.901 132.874 198.901L132.875 198.902ZM21.7513 198.255C21.752 198.255 21.7528 198.255 21.7536 198.255L21.7513 198.255L21.6505 198.745L21.7513 198.255ZM22.1254 198.901C22.1253 198.902 22.1251 198.902 22.125 198.902L22.1254 198.901Z" stroke="#F9DBD8" stroke-opacity="0.5" stroke-width="5"/>
</g>
</g>
<g filter="url(#filter3_d_53_3301)">
<rect x="8.5" y="16" width="137" height="10" rx="2" fill="url(#paint4_radial_53_3301)"/>
</g>
<g filter="url(#filter4_d_53_3301)">
<rect x="8.5" y="29" width="137" height="10" rx="2" fill="url(#paint5_radial_53_3301)"/>
</g>
<g filter="url(#filter5_d_53_3301)">
<rect x="8.5" y="42" width="137" height="10" rx="2" fill="url(#paint6_radial_53_3301)"/>
</g>
<defs>
<filter id="filter0_d_53_3301" x="6.38281" y="59.5" width="142.234" height="45.5" filterUnits="userSpaceOnUse" color-interpolation-filters="sRGB">
<feFlood flood-opacity="0" result="BackgroundImageFix"/>
<feColorMatrix in="SourceAlpha" type="matrix" values="0 0 0 0 0 0 0 0 0 0 0 0 0 0 0 0 0 0 127 0" result="hardAlpha"/>
<feOffset/>
<feGaussianBlur stdDeviation="2"/>
<feComposite in2="hardAlpha" operator="out"/>
<feColorMatrix type="matrix" values="0 0 0 0 0 0 0 0 0 0 0 0 0 0 0 0 0 0 0.25 0"/>
<feBlend mode="normal" in2="BackgroundImageFix" result="effect1_dropShadow_53_3301"/>
<feBlend mode="normal" in="SourceGraphic" in2="effect1_dropShadow_53_3301" result="shape"/>
</filter>
<filter id="filter1_d_53_3301" x="6" y="0" width="143" height="68" filterUnits="userSpaceOnUse" color-interpolation-filters="sRGB">
<feFlood flood-opacity="0" result="BackgroundImageFix"/>
<feColorMatrix in="SourceAlpha" type="matrix" values="0 0 0 0 0 0 0 0 0 0 0 0 0 0 0 0 0 0 127 0" result="hardAlpha"/>
<feOffset/>
<feGaussianBlur stdDeviation="2"/>
<feComposite in2="hardAlpha" operator="out"/>
<feColorMatrix type="matrix" values="0 0 0 0 0 0 0 0 0 0 0 0 0 0 0 0 0 0 0.25 0"/>
<feBlend mode="normal" in2="BackgroundImageFix" result="effect1_dropShadow_53_3301"/>
<feBlend mode="normal" in="SourceGraphic" in2="effect1_dropShadow_53_3301" result="shape"/>
</filter>
<filter id="filter2_d_53_3301" x="15.6499" y="96.0105" width="123.7" height="140.979" filterUnits="userSpaceOnUse" color-interpolation-filters="sRGB">
<feFlood flood-opacity="0" result="BackgroundImageFix"/>
<feColorMatrix in="SourceAlpha" type="matrix" values="0 0 0 0 0 0 0 0 0 0 0 0 0 0 0 0 0 0 127 0" result="hardAlpha"/>
<feOffset/>
<feGaussianBlur stdDeviation="2"/>
<feComposite in2="hardAlpha" operator="out"/>
<feColorMatrix type="matrix" values="0 0 0 0 0 0 0 0 0 0 0 0 0 0 0 0 0 0 0.25 0"/>
<feBlend mode="normal" in2="BackgroundImageFix" result="effect1_dropShadow_53_3301"/>
<feBlend mode="normal" in="SourceGraphic" in2="effect1_dropShadow_53_3301" result="shape"/>
</filter>
<filter id="filter3_d_53_3301" x="6.5" y="14" width="141" height="14" filterUnits="userSpaceOnUse" color-interpolation-filters="sRGB">
<feFlood flood-opacity="0" result="BackgroundImageFix"/>
<feColorMatrix in="SourceAlpha" type="matrix" values="0 0 0 0 0 0 0 0 0 0 0 0 0 0 0 0 0 0 127 0" result="hardAlpha"/>
<feMorphology radius="1" operator="dilate" in="SourceAlpha" result="effect1_dropShadow_53_3301"/>
<feOffset/>
<feGaussianBlur stdDeviation="0.5"/>
<feComposite in2="hardAlpha" operator="out"/>
<feColorMatrix type="matrix" values="0 0 0 0 0 0 0 0 0 0 0 0 0 0 0 0 0 0 0.25 0"/>
<feBlend mode="normal" in2="BackgroundImageFix" result="effect1_dropShadow_53_3301"/>
<feBlend mode="normal" in="SourceGraphic" in2="effect1_dropShadow_53_3301" result="shape"/>
</filter>
<filter id="filter4_d_53_3301" x="6.5" y="27" width="141" height="14" filterUnits="userSpaceOnUse" color-interpolation-filters="sRGB">
<feFlood flood-opacity="0" result="BackgroundImageFix"/>
<feColorMatrix in="SourceAlpha" type="matrix" values="0 0 0 0 0 0 0 0 0 0 0 0 0 0 0 0 0 0 127 0" result="hardAlpha"/>
<feMorphology radius="1" operator="dilate" in="SourceAlpha" result="effect1_dropShadow_53_3301"/>
<feOffset/>
<feGaussianBlur stdDeviation="0.5"/>
<feComposite in2="hardAlpha" operator="out"/>
<feColorMatrix type="matrix" values="0 0 0 0 0 0 0 0 0 0 0 0 0 0 0 0 0 0 0.25 0"/>
<feBlend mode="normal" in2="BackgroundImageFix" result="effect1_dropShadow_53_3301"/>
<feBlend mode="normal" in="SourceGraphic" in2="effect1_dropShadow_53_3301" result="shape"/>
</filter>
<filter id="filter5_d_53_3301" x="6.5" y="40" width="141" height="14" filterUnits="userSpaceOnUse" color-interpolation-filters="sRGB">
<feFlood flood-opacity="0" result="BackgroundImageFix"/>
<feColorMatrix in="SourceAlpha" type="matrix" values="0 0 0 0 0 0 0 0 0 0 0 0 0 0 0 0 0 0 127 0" result="hardAlpha"/>
<feMorphology radius="1" operator="dilate" in="SourceAlpha" result="effect1_dropShadow_53_3301"/>
<feOffset/>
<feGaussianBlur stdDeviation="0.5"/>
<feComposite in2="hardAlpha" operator="out"/>
<feColorMatrix type="matrix" values="0 0 0 0 0 0 0 0 0 0 0 0 0 0 0 0 0 0 0.25 0"/>
<feBlend mode="normal" in2="BackgroundImageFix" result="effect1_dropShadow_53_3301"/>
<feBlend mode="normal" in="SourceGraphic" in2="effect1_dropShadow_53_3301" result="shape"/>
</filter>
<radialGradient id="paint0_radial_53_3301" cx="0" cy="0" r="1" gradientUnits="userSpaceOnUse" gradientTransform="translate(77.5 76) scale(77.5 240.25)">
<stop stop-color="#080764"/>
<stop offset="1" stop-color="#040331"/>
</radialGradient>
<radialGradient id="paint1_radial_53_3301" cx="0" cy="0" r="1" gradientUnits="userSpaceOnUse" gradientTransform="translate(77.5 34) scale(67.5 151.875)">
<stop stop-color="#090765"/>
<stop offset="1" stop-color="#040430"/>
</radialGradient>
<radialGradient id="paint2_radial_53_3301" cx="0" cy="0" r="1" gradientUnits="userSpaceOnUse" gradientTransform="translate(77.5 166.5) rotate(90) scale(67.5)">
<stop stop-color="#6D6A66"/>
<stop offset="1" stop-color="#D3CEC6"/>
</radialGradient>
<radialGradient id="paint3_radial_53_3301" cx="0" cy="0" r="1" gradientUnits="userSpaceOnUse" gradientTransform="translate(77.5 166.5) rotate(90) scale(67.5)">
<stop stop-color="#F9DBD8"/>
<stop offset="1" stop-color="#F9DBD8" stop-opacity="0.5"/>
</radialGradient>
<radialGradient id="paint4_radial_53_3301" cx="0" cy="0" r="1" gradientUnits="userSpaceOnUse" gradientTransform="translate(77 21) scale(68.5 5)">
<stop stop-color="#33A000"/>
<stop offset="1" stop-color="#1D5B00"/>
</radialGradient>
<radialGradient id="paint5_radial_53_3301" cx="0" cy="0" r="1" gradientUnits="userSpaceOnUse" gradientTransform="translate(77 34) scale(68.5 5)">
<stop stop-color="#33A000"/>
<stop offset="1" stop-color="#1D5B00"/>
</radialGradient>
<radialGradient id="paint6_radial_53_3301" cx="0" cy="0" r="1" gradientUnits="userSpaceOnUse" gradientTransform="translate(77 47) scale(68.5 5)">
<stop stop-color="#33A000"/>
<stop offset="1" stop-color="#1D5B00"/>
</radialGradient>
<clipPath id="clip0_53_3301">
<rect width="135" height="135" fill="white" transform="translate(10 99)"/>
</clipPath>
</defs>
</svg>
